<?xml version="1.0" standalone="no"?>
<!DOCTYPE svg PUBLIC "-//W3C//DTD SVG 20010904//EN"
 "http://www.w3.org/TR/2001/REC-SVG-20010904/DTD/svg10.dtd">
<svg version="1.0" xmlns="http://www.w3.org/2000/svg"
 width="64.000000pt" height="64.000000pt" viewBox="0 0 64.000000 64.000000"
 preserveAspectRatio="xMidYMid meet">

<g transform="translate(0.000000,64.000000) scale(0.100000,-0.100000)"
fill="#000000" stroke="none">
<path d="M0 588 l0 -53 18 35 c10 20 32 42 52 52 l35 18 -52 0 -53 0 0 -52z"/>
<path d="M570 622 c20 -10 42 -32 52 -52 l18 -35 0 53 0 52 -52 0 -53 0 35
-18z"/>
<path d="M264 495 c-4 -9 -1 -29 6 -45 11 -28 9 -35 -26 -98 -30 -51 -45 -68
-64 -70 -59 -6 -70 -12 -70 -36 0 -13 7 -27 16 -30 20 -7 244 -8 244 -1 0 4
-7 19 -15 35 -12 23 -22 30 -45 30 -17 0 -30 2 -30 5 0 3 23 45 50 93 28 48
50 96 50 105 0 23 -26 33 -46 17 -11 -10 -18 -10 -26 -2 -17 17 -38 15 -44 -3z"/>
<path d="M350 360 c-11 -28 -9 -36 41 -124 30 -53 60 -98 66 -100 34 -14 55
20 34 53 -7 11 -4 18 12 26 12 6 23 20 25 32 3 23 -8 28 -68 35 -17 2 -33 17
-55 55 -16 29 -33 53 -36 53 -4 0 -12 -13 -19 -30z"/>
<path d="M147 183 c-12 -12 -7 -41 8 -47 22 -8 41 2 53 30 11 23 10 24 -22 24
-18 0 -36 -3 -39 -7z"/>
<path d="M0 53 l0 -53 53 0 52 0 -35 18 c-20 10 -42 32 -52 52 l-18 35 0 -52z"/>
<path d="M619 67 c-8 -17 -31 -40 -50 -49 l-34 -18 53 0 52 0 0 50 c0 28 -1
50 -2 50 -2 0 -10 -15 -19 -33z"/>
</g>
</svg>
