<?xml version="1.0" standalone="no"?>
<!DOCTYPE svg PUBLIC "-//W3C//DTD SVG 20010904//EN"
 "http://www.w3.org/TR/2001/REC-SVG-20010904/DTD/svg10.dtd">
<svg version="1.0" xmlns="http://www.w3.org/2000/svg"
 width="64.000000pt" height="64.000000pt" viewBox="0 0 64.000000 64.000000"
 preserveAspectRatio="xMidYMid meet">

<g transform="translate(0.000000,64.000000) scale(0.100000,-0.100000)"
fill="#000000" stroke="none">
<path d="M0 527 l0 -112 45 3 c45 4 45 4 45 42 0 76 36 140 95 166 27 12 21
13 -77 14 l-108 0 0 -113z"/>
<path d="M355 568 l0 -73 -45 -5 c-42 -5 -45 -7 -48 -37 -3 -31 -3 -32 45 -35
l48 -3 3 -63 c4 -76 -7 -92 -59 -92 l-39 0 0 -118 c0 -78 -4 -122 -12 -130 -9
-9 33 -12 190 -12 l202 0 0 320 0 320 -142 0 -143 0 0 -72z"/>
<path d="M184 581 c-37 -23 -54 -65 -54 -137 l0 -54 -45 0 -45 0 0 -44 0 -45
43 -3 42 -3 3 -127 3 -128 44 0 44 0 3 128 3 127 48 3 47 3 0 45 0 44 -50 0
-50 0 0 54 c0 62 9 73 65 78 38 3 40 5 43 41 l3 37 -58 0 c-39 0 -68 -6 -89
-19z"/>
<path d="M0 142 l0 -142 57 0 c44 0 54 3 45 12 -8 8 -12 52 -12 130 l0 118
-33 0 c-18 0 -38 5 -45 12 -9 9 -12 -20 -12 -130z"/>
</g>
</svg>
