<?xml version="1.0" standalone="no"?>
<!DOCTYPE svg PUBLIC "-//W3C//DTD SVG 20010904//EN"
 "http://www.w3.org/TR/2001/REC-SVG-20010904/DTD/svg10.dtd">
<svg version="1.0" xmlns="http://www.w3.org/2000/svg"
 width="64.000000pt" height="64.000000pt" viewBox="0 0 64.000000 64.000000"
 preserveAspectRatio="xMidYMid meet">

<g transform="translate(0.000000,64.000000) scale(0.100000,-0.100000)"
fill="#000000" stroke="none">
<path d="M0 320 l0 -320 27 0 c21 0 24 3 15 12 -17 17 -17 599 0 616 9 9 6 12
-15 12 l-27 0 0 -320z"/>
<path d="M217 480 l161 -160 -161 -160 -162 -160 293 0 292 0 0 320 0 320
-292 0 -293 0 162 -160z m131 20 c72 -41 132 -77 132 -80 0 -3 -16 -21 -35
-40 l-35 -34 -133 133 c-88 89 -120 127 -97 115 19 -11 95 -53 168 -94z m219
-125 c35 -21 43 -31 43 -55 0 -24 -8 -34 -46 -56 l-46 -27 -41 41 -41 42 39
40 c21 22 41 40 44 40 2 0 24 -11 48 -25z m-117 -120 c18 -19 32 -37 29 -39
-4 -4 -175 -101 -279 -158 -54 -30 -52 -28 75 101 71 72 132 131 135 131 4 0
21 -16 40 -35z"/>
</g>
</svg>
