<svg width="31" height="17" viewBox="0 0 31 17" fill="none" xmlns="http://www.w3.org/2000/svg">
<path d="M29.3639 6.8728H1.63611C0.732512 6.8728 0 7.45744 0 8.17864V8.31609C0 9.03728 0.732512 9.62193 1.63611 9.62193H29.3639C30.2675 9.62193 31 9.03728 31 8.31609V8.17864C31 7.45744 30.2675 6.8728 29.3639 6.8728Z" fill="#53D2D8"/>
<path d="M29.3639 13.7456H1.63611C0.732512 13.7456 0 14.3302 0 15.0514V15.1889C0 15.9101 0.732512 16.4947 1.63611 16.4947H29.3639C30.2675 16.4947 31 15.9101 31 15.1889V15.0514C31 14.3302 30.2675 13.7456 29.3639 13.7456Z" fill="#53D2D8"/>
<path d="M29.3639 0H1.63611C0.732512 0 0 0.584641 0 1.30583V1.44329C0 2.16448 0.732512 2.74912 1.63611 2.74912H29.3639C30.2675 2.74912 31 2.16448 31 1.44329V1.30583C31 0.584641 30.2675 0 29.3639 0Z" fill="#53D2D8"/>
</svg>
