<?xml version="1.0" standalone="no"?>
<!DOCTYPE svg PUBLIC "-//W3C//DTD SVG 20010904//EN"
 "http://www.w3.org/TR/2001/REC-SVG-20010904/DTD/svg10.dtd">
<svg version="1.0" xmlns="http://www.w3.org/2000/svg"
 width="64.000000pt" height="64.000000pt" viewBox="0 0 64.000000 64.000000"
 preserveAspectRatio="xMidYMid meet">

<g transform="translate(0.000000,64.000000) scale(0.100000,-0.100000)"
fill="#000000" stroke="none">
<path d="M0 573 c1 -65 1 -67 14 -38 16 36 61 80 96 94 20 8 13 10 -42 10
l-68 1 0 -67z"/>
<path d="M530 629 c35 -14 80 -58 96 -94 13 -29 13 -27 14 38 l0 67 -67 -1
c-56 0 -63 -2 -43 -10z"/>
<path d="M103 580 c-57 -34 -63 -59 -63 -260 0 -201 6 -226 63 -260 29 -18 51
-20 217 -20 166 0 188 2 217 20 57 35 63 58 63 262 0 164 -2 186 -20 215 -35
57 -58 63 -262 63 -164 0 -186 -2 -215 -20z m425 -36 c30 -21 29 -59 -3 -80
-23 -15 -27 -15 -50 0 -32 21 -33 59 -3 80 12 9 25 16 28 16 3 0 16 -7 28 -16z
m-117 -77 c55 -37 79 -81 79 -147 0 -102 -68 -170 -170 -170 -102 0 -170 68
-170 170 0 66 24 110 79 147 47 32 135 32 182 0z"/>
<path d="M490 505 c0 -8 5 -15 10 -15 6 0 10 7 10 15 0 8 -4 15 -10 15 -5 0
-10 -7 -10 -15z"/>
<path d="M282 453 c-13 -2 -38 -19 -56 -38 -57 -56 -57 -133 -1 -190 56 -56
134 -56 190 0 99 99 7 257 -133 228z"/>
<path d="M1 68 l-1 -68 68 0 c64 1 66 1 37 14 -36 16 -80 61 -94 96 -8 20 -10
13 -10 -42z"/>
<path d="M630 115 c0 -22 -60 -86 -95 -101 -29 -13 -27 -13 38 -14 l67 0 0 65
c0 36 -2 65 -5 65 -3 0 -5 -7 -5 -15z"/>
</g>
</svg>
