<?xml version="1.0" encoding="UTF-8" standalone="no"?>
<svg
   xmlns:dc="http://purl.org/dc/elements/1.1/"
   xmlns:cc="http://creativecommons.org/ns#"
   xmlns:rdf="http://www.w3.org/1999/02/22-rdf-syntax-ns#"
   xmlns:svg="http://www.w3.org/2000/svg"
   xmlns="http://www.w3.org/2000/svg"
   id="svg12"
   version="1.1"
   stroke="null"
   style="vector-effect: non-scaling-stroke;"
   height="768"
   width="1024">
  <metadata
     id="metadata18">
    <rdf:RDF>
      <cc:Work
         rdf:about="">
        <dc:format>image/svg+xml</dc:format>
        <dc:type
           rdf:resource="http://purl.org/dc/dcmitype/StillImage" />
      </cc:Work>
    </rdf:RDF>
  </metadata>
  <defs
     id="defs16" />
  <g
     id="g5"
     stroke="null">
    <title
       id="title2"
       stroke="null">background</title>
    <path
       id="canvas_background"
       d="M -1,-1 H 581 V 401 H -1 Z"
       style="fill:none" />
  </g>
  <g
     id="g10"
     stroke="null">
    <title
       id="title7"
       stroke="null">Layer 1</title>
    <path
       style="fill:#44d1d8;stroke-width:1.24530005"
       id="icon"
       d="m 439.40999,322.84995 c -1.6374,-0.0103 -3.1018,-0.007 -3.2541,0.007 -0.15232,0.0138 -0.75952,0.0596 -1.3501,0.10178 -0.58989,0.0415 -1.6735,0.15094 -2.4073,0.24233 -0.73321,0.0914 -1.8085,0.24717 -2.3886,0.3448 -0.57951,0.0983 -1.5066,0.2721 -2.0584,0.38634 -0.55182,0.11493 -1.4402,0.3171 -1.9732,0.45073 -0.53312,0.13293 -1.4055,0.36695 -1.9386,0.51997 -0.53312,0.15302 -1.4055,0.41958 -1.9386,0.59267 -0.53311,0.17309 -1.4643,0.4992 -2.0695,0.72422 -0.60512,0.22571 -1.5786,0.61135 -2.1629,0.85714 -0.58435,0.24579 -1.5224,0.66467 -2.0847,0.93054 -0.5622,0.26586 -1.4893,0.72767 -2.0605,1.0261 -0.5712,0.29841 -1.4124,0.75605 -1.8694,1.0171 -0.45696,0.26172 -1.2047,0.70759 -1.6617,0.99146 -0.45696,0.28387 -1.3134,0.8433 -1.904,1.2435 -0.58989,0.40019 -1.5094,1.0552 -2.0425,1.4561 -0.53312,0.40019 -1.2961,0.99424 -1.6963,1.3204 -0.39949,0.32611 -1.0697,0.89245 -1.4886,1.2594 -0.41888,0.36626 -1.186,1.0683 -1.7039,1.5599 -0.51858,0.49158 -1.3134,1.2836 -1.7655,1.7607 -0.4528,0.47635 -1.0752,1.1459 -1.3826,1.4886 -0.3074,0.34202 -0.88068,1.0108 -1.2733,1.4872 -0.39256,0.47565 -1.1105,1.3951 -1.5959,2.0425 -0.48465,0.64736 -1.2234,1.6914 -1.6409,2.3194 -0.4175,0.62797 -0.97693,1.501 -1.2435,1.9386 -0.26656,0.43757 -0.76022,1.2947 -1.09739,1.904 -0.3365,0.60928 -0.9153,1.7309 -1.28441,2.4925 -0.36971,0.7616 -0.8509,1.805 -1.0697,2.3194 -0.21879,0.51443 -0.53658,1.2933 -0.70621,1.7309 -0.16962,0.43757 -0.50958,1.3882 -0.75537,2.1117 -0.2451,0.72352 -0.58435,1.7904 -0.7526,2.3706 -0.16893,0.58088 -0.47635,1.7336 -0.68336,2.5617 -0.20771,0.82876 -0.48741,2.0514 -0.62175,2.7183 -0.13431,0.66605 -0.32333,1.679 -0.41957,2.2502 -0.0956,0.5712 -0.2361,1.49 -0.31226,2.0425 -0.0755,0.55181 -0.18418,1.4401 -0.24163,1.9732 -0.0575,0.53312 -0.13709,1.3744 -0.17725,1.8694 -0.0408,0.49504 -0.10386,1.5384 -0.13986,2.3194 -0.0367,0.78029 -0.0671,2.0265 -0.0678,2.7694 0,0.74221 0.0305,2.0197 0.0692,2.8387 0.0381,0.81837 0.11701,2.0494 0.17586,2.7348 0.0581,0.68544 0.18277,1.8507 0.27625,2.5888 0.0935,0.73877 0.26171,1.8916 0.37457,2.5618 0.11286,0.67091 0.28663,1.6243 0.38634,2.1193 0.0997,0.49504 0.30464,1.4263 0.45488,2.0701 0.15024,0.6432 0.41542,1.6873 0.58921,2.3194 0.17309,0.63213 0.48673,1.6942 0.69652,2.361 0.20979,0.66605 0.55251,1.6942 0.7616,2.2848 0.20979,0.5899 0.59335,1.6028 0.85299,2.2502 0.26033,0.64735 0.62729,1.5349 0.81628,1.9732 0.18903,0.43757 0.61551,1.3723 0.94716,2.0771 0.33234,0.70413 0.89453,1.8278 1.24901,2.4966 0.35449,0.66881 0.88623,1.6346 1.1812,2.1463 0.29494,0.51166 0.77614,1.3196 1.0697,1.796 0.29287,0.47565 0.77614,1.2393 1.0745,1.6963 0.29842,0.45696 0.83776,1.2511 1.1992,1.7655 0.36141,0.51373 0.93815,1.3085 1.2816,1.7655 0.34272,0.45696 0.93608,1.2199 1.3169,1.6963 0.3815,0.47565 1.0531,1.285 1.4927,1.798 0.43965,0.51305 1.177,1.3384 1.6381,1.8348 0.46112,0.49643 1.4269,1.4824 2.1463,2.1913 0.71936,0.70968 1.5432,1.5038 1.8299,1.7655 0.28734,0.26241 0.94162,0.83638 1.454,1.276 0.51304,0.43965 1.3217,1.1126 1.7974,1.4941 0.47635,0.38218 1.348,1.0531 1.9386,1.4913 0.59059,0.43757 1.6028,1.1549 2.2502,1.5932 0.64736,0.43827 1.6292,1.078 2.181,1.4215 0.55181,0.34341 1.4228,0.86476 1.9345,1.159 0.51165,0.29426 1.4927,0.8336 2.181,1.1985 0.68752,0.36556 1.8735,0.95753 2.6351,1.3162 0.7616,0.35864 1.6811,0.77683 2.0425,0.92915 0.36141,0.15301 1.0005,0.41819 1.4193,0.5899 0.41888,0.17101 1.1355,0.4521 1.5924,0.62381 0.45696,0.17241 1.4692,0.52897 2.2502,0.79345 0.78099,0.26448 2.1047,0.67782 2.9426,0.91877 0.83775,0.24163 2.1623,0.59543 2.9425,0.78791 0.78099,0.19248 1.9338,0.45904 2.5617,0.59335 0.62867,0.13363 1.6617,0.33856 2.2973,0.45558 0.63489,0.11631 1.7566,0.30326 2.4925,0.41542 0.73529,0.11145 2.0079,0.28109 2.8262,0.37595 0.81907,0.0955 2.0653,0.22156 2.7694,0.27971 0.70483,0.0582 1.8729,0.13709 2.5964,0.17586 0.72352,0.0381 2.5777,0.0692 4.1196,0.0685 1.5426,0 3.3496,-0.0305 4.0157,-0.0671 0.66674,-0.0374 1.6638,-0.10112 2.2156,-0.14194 0.55251,-0.0416 1.7206,-0.15301 2.5964,-0.24786 0.87584,-0.0949 2.122,-0.24926 2.7694,-0.34342 0.64736,-0.0935 1.5508,-0.23402 2.0079,-0.31087 0.45696,-0.0776 1.3917,-0.25063 2.0771,-0.38426 0.68544,-0.13363 1.7918,-0.36695 2.4579,-0.51859 0.66675,-0.15162 1.7544,-0.4168 2.4178,-0.58919 0.66259,-0.17241 1.8777,-0.51235 2.7002,-0.75537 0.82183,-0.24302 2.1331,-0.65775 2.9134,-0.92223 0.78099,-0.26379 2.01,-0.70345 2.7327,-0.97623 0.72214,-0.27349 1.8278,-0.71037 2.4579,-0.97207 0.62937,-0.26104 1.643,-0.69861 2.2523,-0.97209 0.60928,-0.27348 1.6998,-0.78375 2.4233,-1.1348 0.72352,-0.35034 1.9698,-0.99078 2.7694,-1.4228 0.79968,-0.43204 1.974,-1.0898 2.6096,-1.4616 0.63559,-0.3718 1.6167,-0.96377 2.1809,-1.3155 0.56428,-0.35172 1.6173,-1.0378 2.3408,-1.5246 0.72352,-0.48604 1.7566,-1.2054 2.2965,-1.5987 0.53936,-0.39258 1.474,-1.0926 2.0771,-1.5551 0.60236,-0.46319 1.672,-1.3217 2.377,-1.9088 0.70483,-0.58643 1.7794,-1.5156 2.3886,-2.0639 0.60928,-0.54835 1.805,-1.6838 2.6573,-2.523 0.8516,-0.83846 2.0668,-2.0868 2.7002,-2.7736 0.63282,-0.68613 1.5364,-1.697 2.0079,-2.2461 0.4708,-0.54974 1.2199,-1.4518 1.6644,-2.0065 0.44449,-0.55389 1.105,-1.3972 1.4685,-1.8729 0.36348,-0.47635 0.97208,-1.3017 1.3528,-1.8348 0.3801,-0.53312 1.03509,-1.4837 1.45399,-2.1117 0.41958,-0.62867 1.0739,-1.6409 1.454,-2.2502 0.38011,-0.60928 0.92708,-1.5129 1.2151,-2.0078 0.28803,-0.49504 0.78029,-1.3674 1.0939,-1.9386 0.31434,-0.5712 0.997,-1.8957 1.517,-2.9425 0.52066,-1.0476 1.2137,-2.5119 1.5411,-3.2541 0.32682,-0.74291 0.84469,-1.9754 1.14931,-2.7403 0.30534,-0.76436 0.77337,-1.9946 1.0399,-2.7348 0.26656,-0.73945 0.67713,-1.9524 0.91183,-2.6947 0.23541,-0.74291 0.46597,-1.4705 0.51167,-1.6181 l 0.0838,-0.26794 0.65498,-0.23334 c 0.36003,-0.12808 0.97277,-0.38702 1.3612,-0.57534 0.38842,-0.18832 0.94924,-0.50543 1.2463,-0.70483 0.29701,-0.19871 0.77544,-0.55735 1.0635,-0.79552 0.28802,-0.23887 0.73321,-0.65636 0.98869,-0.92708 0.25617,-0.27141 0.62936,-0.7173 0.82945,-0.99147 0.20078,-0.27418 0.4625,-0.65428 0.58297,-0.84468 0.11979,-0.1904 0.37319,-0.67367 0.56359,-1.0732 0.1904,-0.40019 0.42857,-0.97347 0.52896,-1.2746 0.10037,-0.30118 0.24164,-0.8156 0.31434,-1.1424 0.072,-0.32679 0.16963,-1.0074 0.21601,-1.5121 0.0665,-0.72214 0.0665,-1.1126 0,-1.8348 -0.0464,-0.50472 -0.14401,-1.1853 -0.21601,-1.5121 -0.0727,-0.3268 -0.21257,-0.84122 -0.31156,-1.1424 -0.099,-0.30118 -0.39673,-0.98386 -0.66053,-1.517 -0.31364,-0.63213 -0.67159,-1.222 -1.0316,-1.6963 -0.30256,-0.40018 -0.82599,-0.997 -1.1625,-1.3273 -0.33649,-0.33025 -0.90354,-0.81906 -1.2608,-1.0856 -0.35795,-0.26656 -1.0122,-0.67021 -1.454,-0.89661 -0.44241,-0.22641 -1.0226,-0.49228 -1.2892,-0.59059 -0.26656,-0.0983 -0.71798,-0.24371 -1.00391,-0.32195 -0.28525,-0.0789 -0.79967,-0.18764 -1.14239,-0.24233 -0.34272,-0.0554 -0.9347,-0.12047 -1.31551,-0.1447 -0.39117,-0.0256 -1.03849,-0.0103 -1.4886,0.0353 -0.43757,0.0443 -1.0891,0.14401 -1.4477,0.22155 -0.35795,0.0776 -0.96307,0.24925 -1.3439,0.38219 -0.3808,0.13224 -0.96308,0.37664 -1.2933,0.5428 -0.33096,0.16617 -0.94162,0.52828 -1.3571,0.80522 -0.52964,0.35311 -1.0136,0.7616 -1.6236,1.3723 -0.61067,0.60998 -1.01919,1.0939 -1.3723,1.6236 -0.27694,0.41541 -0.63905,1.0261 -0.80521,1.3571 -0.16617,0.33025 -0.41058,0.91253 -0.54282,1.2933 -0.13293,0.3808 -0.30602,0.99285 -0.38565,1.3604 -0.0796,0.36695 -0.17932,1.0572 -0.22224,1.5335 -0.056,0.63767 -0.056,1.096 0,1.7336 0.043,0.47635 0.14262,1.1666 0.22224,1.5335 0.0796,0.36765 0.25271,0.9797 0.38565,1.3604 0.13224,0.3808 0.37664,0.96308 0.54282,1.2933 0.16616,0.33096 0.52895,0.94162 0.80591,1.3571 0.33995,0.50958 0.76368,1.0143 1.303,1.5543 0.43965,0.43965 0.99767,0.94645 1.24069,1.1265 0.24302,0.18001 0.49226,0.35518 0.5539,0.3898 0.0997,0.056 0.07,0.1904 -0.25826,1.193 -0.20424,0.62174 -0.61482,1.7842 -0.91253,2.5839 -0.29772,0.79968 -0.74291,1.9365 -0.98939,2.5271 -0.24648,0.58989 -0.64389,1.5094 -0.88276,2.0425 -0.23886,0.53312 -0.85991,1.8105 -1.3799,2.8387 -0.51997,1.0282 -1.3044,2.4925 -1.7441,3.2541 -0.43896,0.7616 -1.0718,1.8209 -1.4055,2.354 -0.33373,0.53312 -0.99632,1.5454 -1.472,2.2502 -0.47635,0.70413 -1.2719,1.8258 -1.769,2.4925 -0.49642,0.66605 -1.2712,1.6693 -1.7212,2.2294 -0.45003,0.55943 -1.1493,1.4007 -1.5537,1.8694 -0.40503,0.46804 -1.1964,1.3501 -1.7593,1.9594 -0.56288,0.60928 -1.6576,1.7317 -2.4322,2.4933 -0.77545,0.76228 -1.861,1.787 -2.4136,2.2786 -0.55181,0.4909 -1.3626,1.193 -1.8002,1.5599 -0.43757,0.36765 -1.0918,0.90145 -1.454,1.1874 -0.36141,0.28595 -1.0939,0.84884 -1.627,1.2504 -0.53312,0.40226 -1.4367,1.0579 -2.0079,1.4581 -0.5712,0.40018 -1.454,0.9977 -1.9622,1.3279 -0.5075,0.33025 -1.4269,0.90561 -2.0425,1.2781 -0.61552,0.37318 -1.6582,0.98108 -2.318,1.3515 -0.65982,0.37041 -1.9372,1.0413 -2.8387,1.4921 -0.90145,0.45003 -1.983,0.97553 -2.4025,1.1666 -0.41958,0.19178 -1.2137,0.54212 -1.7655,0.77821 -0.55113,0.23679 -1.4388,0.60167 -1.9719,0.81076 -0.53312,0.2091 -1.5162,0.57675 -2.1844,0.81699 -0.66883,0.24095 -1.7704,0.61205 -2.4489,0.82599 -0.67783,0.21394 -1.7317,0.52966 -2.3408,0.70136 -0.60928,0.1724 -1.7974,0.48051 -2.6399,0.68544 -0.84329,0.20425 -2.1712,0.49712 -2.9523,0.65082 -0.78029,0.15371 -1.9019,0.35796 -2.4925,0.4535 -0.58989,0.0963 -1.6492,0.25064 -2.354,0.3448 -0.70414,0.0935 -1.9975,0.23402 -2.8733,0.31156 -0.87584,0.0782 -2.1844,0.17309 -2.9079,0.21187 -0.72352,0.0387 -2.3589,0.07 -3.6349,0.07 -1.2754,0 -2.9114,-0.0311 -3.6349,-0.0692 -0.72352,-0.0381 -1.8764,-0.11706 -2.5618,-0.17448 -0.68544,-0.0575 -1.8846,-0.18209 -2.6656,-0.27763 -0.78029,-0.0955 -2.0736,-0.2804 -2.8733,-0.41127 -0.79968,-0.13017 -2.0086,-0.34826 -2.687,-0.48396 -0.67782,-0.1357 -1.7572,-0.36972 -2.3976,-0.52065 -0.64113,-0.15025 -1.4726,-0.3545 -1.848,-0.4535 -0.37596,-0.099 -1.1196,-0.30534 -1.6527,-0.45835 -0.53312,-0.15301 -1.4831,-0.45004 -2.1117,-0.66051 -0.62797,-0.20979 -1.6409,-0.56912 -2.2502,-0.79898 -0.60928,-0.22918 -1.6216,-0.63421 -2.2502,-0.89869 -0.62797,-0.26518 -1.8071,-0.80523 -2.6199,-1.2006 -0.81214,-0.39533 -1.8562,-0.92777 -2.3194,-1.1839 -0.46319,-0.25548 -1.3785,-0.78514 -2.0341,-1.1763 -0.65567,-0.39119 -1.6679,-1.0295 -2.2502,-1.418 -0.58159,-0.38841 -1.5716,-1.0828 -2.2004,-1.5426 -0.62798,-0.45973 -1.5004,-1.1292 -1.9386,-1.4872 -0.43757,-0.35865 -1.2158,-1.0136 -1.7282,-1.4547 -0.51305,-0.44173 -1.553,-1.411 -2.3118,-2.1533 -0.75884,-0.74221 -1.7891,-1.8023 -2.2897,-2.354 -0.50058,-0.55251 -1.2206,-1.3778 -1.6008,-1.8348 -0.3808,-0.45696 -1.0039,-1.2359 -1.3855,-1.7309 -0.38218,-0.49504 -0.93053,-1.2276 -1.2199,-1.627 -0.28871,-0.40019 -0.88277,-1.2725 -1.319,-1.9386 -0.43689,-0.66675 -1.1064,-1.7412 -1.4878,-2.3886 -0.3815,-0.64736 -0.88138,-1.5197 -1.1106,-1.9386 -0.22918,-0.41888 -0.68128,-1.2912 -1.0046,-1.9386 -0.32333,-0.64736 -0.82253,-1.7066 -1.1099,-2.354 -0.28664,-0.64806 -0.64528,-1.4893 -0.79692,-1.8694 -0.15162,-0.3808 -0.48189,-1.2622 -0.73321,-1.958 -0.25201,-0.69651 -0.65774,-1.9269 -0.90077,-2.7348 -0.24371,-0.80799 -0.58574,-2.046 -0.76021,-2.75 -0.17379,-0.70483 -0.43965,-1.904 -0.59059,-2.6656 -0.15095,-0.7616 -0.35311,-1.9303 -0.45004,-2.5964 -0.0969,-0.66675 -0.22155,-1.6167 -0.27764,-2.1117 -0.0554,-0.49504 -0.14194,-1.3834 -0.19178,-1.9732 -0.0589,-0.69374 -0.0907,-2.235 -0.09,-4.3619 6.9e-4,-2.5894 0.027,-3.5754 0.12393,-4.6353 0.0671,-0.74083 0.18555,-1.8472 0.2624,-2.4579 0.0769,-0.61136 0.22986,-1.6568 0.34064,-2.3229 0.11008,-0.66675 0.29702,-1.679 0.41542,-2.2502 0.1177,-0.5712 0.36625,-1.6465 0.55181,-2.3886 0.18555,-0.74291 0.4985,-1.8797 0.69513,-2.5271 0.19662,-0.64736 0.55458,-1.7066 0.79621,-2.354 0.24095,-0.64736 0.60928,-1.5821 0.81769,-2.0771 0.20841,-0.49504 0.56358,-1.2898 0.78929,-1.7655 0.22502,-0.47635 0.6529,-1.3176 0.94992,-1.8694 0.29772,-0.55251 0.77475,-1.3937 1.06,-1.8694 0.28525,-0.47635 0.82461,-1.3231 1.1985,-1.8832 0.37318,-0.55944 0.99008,-1.4318 1.3695,-1.9386 0.3801,-0.50612 0.97623,-1.2636 1.3252,-1.6825 0.34895,-0.41888 0.94161,-1.1064 1.3176,-1.5281 0.37595,-0.42096 1.2075,-1.2781 1.848,-1.904 0.64044,-0.62589 1.6181,-1.5273 2.1726,-2.003 0.55389,-0.47635 1.3951,-1.1625 1.868,-1.5246 0.47357,-0.36279 1.2657,-0.943 1.7607,-1.2892 0.49504,-0.34618 1.321,-0.89245 1.8348,-1.2144 0.51442,-0.32125 1.3244,-0.80452 1.8001,-1.0732 0.47635,-0.26932 1.3951,-0.75398 2.0425,-1.078 0.64736,-0.32333 1.5508,-0.75121 2.0079,-0.9513 0.45696,-0.1994 1.3293,-0.55665 1.9386,-0.79484 0.60928,-0.23748 1.544,-0.57466 2.0771,-0.74913 0.53312,-0.17379 1.2345,-0.39534 1.5578,-0.49088 0.32403,-0.0962 1.087,-0.2991 1.6963,-0.45073 0.60928,-0.15163 1.5786,-0.37042 2.1533,-0.48604 0.57536,-0.11494 1.5883,-0.28803 2.2502,-0.38357 0.66259,-0.0955 1.7191,-0.22778 2.3471,-0.29425 0.89177,-0.0935 1.7967,-0.11978 4.1196,-0.12186 2.3762,-10e-4 3.2216,0.0229 4.1888,0.12186 0.66675,0.0685 1.7412,0.20217 2.3887,0.29841 0.64736,0.0956 1.7219,0.28249 2.3873,0.41612 0.66537,0.13363 1.6936,0.36765 2.2848,0.51927 0.59127,0.15232 1.6043,0.44934 2.2516,0.66121 0.64736,0.21187 1.6292,0.56497 2.1809,0.78513 0.55251,0.21948 1.411,0.58643 1.9095,0.81561 0.49781,0.22848 1.3231,0.64113 1.8348,0.91738 0.51096,0.27557 1.2407,0.68821 1.6216,0.91738 0.3808,0.22848 1.0545,0.66051 1.4962,0.95893 0.44241,0.2991 1.1632,0.81629 1.6022,1.1493 0.43895,0.33372 1.168,0.92223 1.6194,1.3085 0.45144,0.38564 1.3979,1.2892 2.102,2.0078 0.70483,0.71798 1.6554,1.7731 2.1131,2.3443 0.45696,0.5712 1.0842,1.3972 1.3931,1.8348 0.3088,0.43757 0.79483,1.1701 1.0801,1.627 0.28527,0.45696 0.79,1.3266 1.1223,1.9331 0.33233,0.60582 0.79968,1.5253 1.0378,2.0425 0.23886,0.51719 0.59543,1.339 0.79345,1.8258 0.19732,0.48742 0.5262,1.391 0.72975,2.0078 0.20424,0.61759 0.51443,1.6908 0.68821,2.3845 0.17448,0.69445 0.39465,1.6914 0.49088,2.2156 0.0955,0.52481 0.23472,1.4359 0.30949,2.0265 0.0748,0.58989 0.1724,1.6181 0.21741,2.2848 0.0506,0.74775 0.0657,1.861 0.0401,2.9079 -0.0235,0.93262 -0.0887,2.1325 -0.14472,2.6656 -0.0568,0.53312 -0.13569,1.2026 -0.17585,1.4886 -0.0401,0.28526 -0.15164,0.95547 -0.24857,1.4886 -0.0963,0.53312 -0.29563,1.4518 -0.44311,2.0425 -0.14816,0.58989 -0.36764,1.3847 -0.4888,1.7655 -0.12116,0.3808 -0.39188,1.1286 -0.60167,1.6617 -0.20909,0.53312 -0.60997,1.4366 -0.89037,2.0078 -0.28041,0.5712 -0.76022,1.4567 -1.0669,1.967 -0.30672,0.51097 -0.85023,1.3369 -1.2068,1.8348 -0.35725,0.4985 -0.90768,1.2179 -1.2227,1.5987 -0.31502,0.3808 -1.0898,1.2075 -1.7212,1.8369 -0.63074,0.62936 -1.5675,1.481 -2.082,1.8923 -0.51373,0.41126 -1.3398,1.0205 -1.8348,1.3542 -0.49504,0.33441 -1.1957,0.78029 -1.5578,0.99215 -0.36141,0.21118 -1.1251,0.61759 -1.6963,0.90284 -0.5712,0.28457 -1.4748,0.6896 -2.0078,0.90007 -0.53312,0.21049 -1.3744,0.50889 -1.8694,0.66261 -0.49504,0.15438 -1.2116,0.35725 -1.5924,0.4521 -0.3808,0.0941 -1.0974,0.24995 -1.5924,0.3448 -0.49504,0.0955 -1.3203,0.22433 -1.8348,0.28595 -0.51373,0.0623 -1.6201,0.13085 -2.4579,0.15232 -0.91808,0.0235 -1.9497,0.006 -2.5964,-0.043 -0.58989,-0.0449 -1.4159,-0.12878 -1.8348,-0.18693 -0.41888,-0.0575 -1.1507,-0.18348 -1.627,-0.27973 -0.47565,-0.0962 -1.2082,-0.26378 -1.627,-0.37248 -0.41888,-0.10946 -1.1244,-0.32334 -1.5682,-0.47635 -0.44381,-0.15301 -1.1763,-0.43688 -1.627,-0.63005 -0.45142,-0.19386 -1.1632,-0.54142 -1.5821,-0.77336 -0.41888,-0.23195 -1.1514,-0.67922 -1.6284,-0.99494 -0.47635,-0.31571 -1.2552,-0.89937 -1.7309,-1.2968 -0.47497,-0.39743 -1.2068,-1.0773 -1.6257,-1.5115 -0.41888,-0.43411 -0.99838,-1.0849 -1.2871,-1.4464 -0.28941,-0.36141 -0.72907,-0.95338 -0.97693,-1.3148 -0.24856,-0.3621 -0.63144,-0.96514 -0.85091,-1.3418 -0.22018,-0.37596 -0.59474,-1.0925 -0.83222,-1.5924 -0.23817,-0.49919 -0.55735,-1.2511 -0.71037,-1.67 -0.15302,-0.41888 -0.37318,-1.1043 -0.4902,-1.5232 -0.117,-0.41888 -0.27486,-1.0732 -0.35102,-1.454 -0.0762,-0.3808 -0.18418,-1.0662 -0.24025,-1.5232 -0.0561,-0.45696 -0.11632,-1.0856 -0.13431,-1.3972 l -0.0325,-0.56566 0.6972,-0.22432 c 0.38357,-0.12324 1.0891,-0.42096 1.5682,-0.66259 0.47911,-0.24095 1.141,-0.63351 1.4713,-0.87168 0.33025,-0.23817 0.80868,-0.6162 1.0621,-0.84053 0.2541,-0.22432 0.68682,-0.66605 0.96308,-0.98177 0.27557,-0.31502 0.68128,-0.84468 0.90215,-1.1763 0.22086,-0.33095 0.56774,-0.94923 0.77061,-1.3723 0.20286,-0.42373 0.46318,-1.0579 0.57812,-1.4096 0.11424,-0.3524 0.27833,-0.99077 0.36349,-1.4193 0.12809,-0.64252 0.15578,-1.0053 0.1544,-2.0605 -10e-4,-0.91115 -0.036,-1.4658 -0.12116,-1.9206 -0.0651,-0.35172 -0.19802,-0.91254 -0.29426,-1.2462 -0.0962,-0.33372 -0.3088,-0.92293 -0.47219,-1.3085 -0.1634,-0.38634 -0.4625,-0.97831 -0.66467,-1.3155 -0.20281,-0.33793 -0.55523,-0.85996 -0.78301,-1.1605 -0.22848,-0.30117 -0.70137,-0.83083 -1.051,-1.177 -0.34965,-0.34688 -0.88831,-0.81077 -1.1964,-1.0316 -0.3081,-0.22155 -0.81629,-0.55389 -1.1286,-0.74013 -0.31295,-0.18624 -0.8703,-0.46318 -1.2386,-0.6162 -0.36904,-0.15302 -0.93262,-0.3538 -1.2538,-0.44657 -0.32057,-0.0928 -0.87792,-0.2188 -1.2393,-0.28111 -0.36072,-0.0616 -0.99908,-0.13085 -1.4193,-0.1544 -0.42719,-0.0235 -1.1133,-0.006 -1.5592,0.0388 -0.43757,0.045 -1.0759,0.14401 -1.4186,0.22017 -0.34202,0.0762 -0.85645,0.21533 -1.1424,0.30949 -0.28595,0.0935 -0.95616,0.38702 -1.4893,0.65082 -0.57328,0.28387 -1.238,0.68198 -1.6271,0.97347 -0.36141,0.27072 -0.91738,0.74705 -1.2352,1.0586 -0.3171,0.31087 -0.77268,0.81491 -1.0122,1.1196 -0.23956,0.30464 -0.56358,0.76437 -0.72006,1.0212 -0.15648,0.25687 -0.4078,0.71105 -0.55735,1.0095 -0.15024,0.29841 -0.3815,0.85437 -0.51443,1.2359 -0.13293,0.3808 -0.30464,0.98592 -0.38218,1.3439 -0.0775,0.35865 -0.17586,1.0614 -0.2181,1.5619 -0.0568,0.67021 -0.0568,1.1348 7e-4,1.7655 0.0429,0.47011 0.13847,1.1355 0.21255,1.4782 0.0741,0.34272 0.21601,0.87238 0.31641,1.177 0.0997,0.30464 0.33095,0.87237 0.51304,1.2608 0.1814,0.3891 0.50889,0.98108 0.72698,1.3155 0.2181,0.3351 0.57605,0.82807 0.79484,1.096 0.21879,0.26795 0.67021,0.74429 1.0025,1.0593 0.33234,0.31433 0.7893,0.70205 1.0157,0.86199 l 0.41196,0.2901 -0.0464,0.83153 c -0.0256,0.45766 -0.0111,1.4234 0.0318,2.1471 0.0429,0.72352 0.11008,1.5959 0.14956,1.9386 0.0402,0.34272 0.13571,1.0122 0.21255,1.4886 0.0769,0.47565 0.23125,1.2705 0.34202,1.7655 0.11078,0.49504 0.33026,1.3363 0.48812,1.8694 0.15855,0.53312 0.38911,1.2497 0.51305,1.5924 0.12392,0.34271 0.35518,0.94992 0.51443,1.3501 0.15924,0.39949 0.53035,1.2255 0.8246,1.8348 0.29426,0.60928 0.73045,1.4505 0.97001,1.8694 0.23887,0.41888 0.75676,1.2442 1.15,1.8348 0.39395,0.58989 1.0524,1.4934 1.4643,2.0078 0.41196,0.51374 1.2324,1.4297 1.8229,2.0341 0.59059,0.60512 1.3986,1.3826 1.796,1.7295 0.39673,0.34618 1.1805,0.97277 1.7412,1.3931 0.56082,0.41957 1.4664,1.0413 2.0127,1.382 0.54627,0.34065 1.5232,0.89108 2.1706,1.2241 0.64736,0.33303 1.6714,0.81006 2.2758,1.0614 0.60374,0.25064 1.5668,0.61205 2.1387,0.80315 0.5719,0.19109 1.5259,0.46942 2.1207,0.61758 0.59473,0.14886 1.4858,0.35034 1.9808,0.44727 0.49504,0.0976 1.2276,0.22571 1.627,0.28456 0.40019,0.0595 1.148,0.15509 1.6617,0.21325 0.51442,0.0581 1.8853,0.12328 3.0464,0.14401 1.3182,0.0243 2.5153,0.009 3.1849,-0.0416 0.59058,-0.0436 1.5716,-0.14332 2.1809,-0.22156 0.60928,-0.0782 1.7157,-0.26309 2.4579,-0.41126 0.74291,-0.14817 1.8174,-0.39742 2.3886,-0.55389 0.5712,-0.15647 1.4941,-0.43618 2.0501,-0.62174 0.55666,-0.18625 1.3979,-0.49296 1.8694,-0.68198 0.47219,-0.18902 1.1777,-0.48673 1.5689,-0.66121 0.3905,-0.17447 0.99838,-0.46111 1.3501,-0.63697 0.35102,-0.17655 1.0995,-0.58158 1.6624,-0.90145 0.56289,-0.31989 1.4353,-0.84885 1.9386,-1.1763 0.50335,-0.32749 1.3826,-0.94646 1.9538,-1.375 0.5712,-0.42858 1.3972,-1.0849 1.8348,-1.4581 0.43826,-0.37318 1.3888,-1.2725 2.1131,-1.9989 0.72422,-0.7263 1.6146,-1.6797 1.9787,-2.1172 0.36419,-0.43827 0.92222,-1.1389 1.2407,-1.5578 0.3178,-0.41888 0.89593,-1.2449 1.2857,-1.8348 0.38912,-0.59059 0.94508,-1.4893 1.2366,-1.9975 0.29079,-0.50819 0.70967,-1.2871 0.93192,-1.7309 0.22156,-0.44381 0.5622,-1.1687 0.75744,-1.6111 0.19525,-0.44241 0.49158,-1.159 0.65913,-1.5924 0.16755,-0.43342 0.46596,-1.2864 0.66329,-1.8956 0.19732,-0.60928 0.49642,-1.6498 0.66536,-2.3124 0.16824,-0.66259 0.41403,-1.7531 0.54557,-2.4233 0.13225,-0.67021 0.30258,-1.6547 0.37942,-2.1879 0.0768,-0.53312 0.18764,-1.4215 0.24579,-1.9732 0.0582,-0.55251 0.14332,-1.7904 0.18902,-2.7521 0.0644,-1.3577 0.0644,-2.1539 7e-4,-3.5657 -0.0457,-0.99976 -0.13087,-2.2696 -0.18902,-2.8214 -0.0589,-0.5525 -0.18556,-1.5183 -0.28249,-2.1463 -0.0969,-0.62797 -0.26932,-1.6043 -0.38356,-2.1685 -0.11419,-0.56428 -0.32749,-1.4989 -0.47497,-2.0771 -0.14678,-0.57813 -0.42372,-1.5654 -0.61482,-2.1934 -0.19108,-0.62797 -0.53242,-1.6409 -0.75882,-2.2502 -0.22572,-0.60928 -0.57328,-1.4976 -0.7713,-1.9732 -0.19801,-0.47635 -0.60859,-1.3799 -0.91115,-2.0078 -0.30325,-0.62797 -0.83569,-1.672 -1.1832,-2.3194 -0.34757,-0.64736 -0.86407,-1.5668 -1.1479,-2.0425 -0.28387,-0.47635 -0.80661,-1.3017 -1.1611,-1.8348 -0.35519,-0.53312 -0.96654,-1.3944 -1.3585,-1.9137 -0.39256,-0.51997 -1.1223,-1.4234 -1.6222,-2.0078 -0.50058,-0.58505 -1.373,-1.5329 -1.9386,-2.1068 -0.56636,-0.57328 -1.3633,-1.3411 -1.771,-1.706 -0.40779,-0.36488 -1.0711,-0.93261 -1.474,-1.2614 -0.40365,-0.32957 -1.114,-0.88276 -1.5786,-1.229 -0.46458,-0.34687 -1.3272,-0.94992 -1.9178,-1.3398 -0.58989,-0.3898 -1.5094,-0.96446 -2.0425,-1.2774 -0.53312,-0.31295 -1.7482,-0.9527 -2.7002,-1.4215 -0.952,-0.46872 -2.2758,-1.0704 -2.9425,-1.3363 -0.66605,-0.26586 -1.6749,-0.64252 -2.2412,-0.83776 -0.56635,-0.19456 -1.454,-0.47635 -1.9732,-0.62589 -0.51927,-0.14956 -1.4421,-0.39603 -2.0514,-0.54835 -0.60928,-0.15232 -1.5606,-0.37111 -2.1144,-0.48535 -0.55389,-0.11494 -1.5508,-0.30326 -2.2156,-0.41819 -0.66467,-0.11562 -1.6914,-0.2721 -2.2821,-0.34826 -0.58989,-0.0762 -1.587,-0.1897 -2.2156,-0.25271 -0.82391,-0.0824 -1.9719,-0.11978 -4.1196,-0.13225 z m -15.578,38.12 c 0.22848,-10e-4 0.6259,0.0422 0.88347,0.0969 0.25688,0.054 0.69306,0.21602 0.96931,0.35934 0.30948,0.16132 0.67575,0.43342 0.95823,0.71313 0.34342,0.33995 0.52758,0.59959 0.73944,1.0413 0.15579,0.32403 0.31573,0.77337 0.35657,0.99908 0.0408,0.2264 0.0741,0.5719 0.0741,0.76783 0,0.19662 -0.0616,0.59819 -0.13709,0.89176 -0.0748,0.29426 -0.23748,0.72491 -0.3614,0.95755 -0.12393,0.23194 -0.41334,0.61274 -0.6432,0.84676 -0.23056,0.23332 -0.58921,0.52135 -0.7983,0.64043 -0.2084,0.11909 -0.58158,0.28595 -0.82945,0.37042 -0.33996,0.117 -0.61136,0.15508 -1.1078,0.15648 -0.42927,6.9e-4 -0.80106,-0.0408 -1.0697,-0.11978 -0.2264,-0.0672 -0.60028,-0.2174 -0.83084,-0.33304 -0.25271,-0.12808 -0.61345,-0.40641 -0.91116,-0.70413 -0.27071,-0.27072 -0.57743,-0.6612 -0.68268,-0.86822 -0.10455,-0.20632 -0.23471,-0.50196 -0.2887,-0.65636 -0.0547,-0.1537 -0.12879,-0.49088 -0.16548,-0.74913 -0.0436,-0.30464 -0.0422,-0.63906 0.002,-0.95477 0.0381,-0.26794 0.13155,-0.66536 0.20772,-0.88276 0.0769,-0.21809 0.28595,-0.61136 0.46458,-0.87446 0.17932,-0.2624 0.49574,-0.61066 0.70344,-0.77406 0.20772,-0.16271 0.52621,-0.37734 0.70829,-0.47635 0.18209,-0.099 0.55873,-0.23956 0.83706,-0.31295 0.27833,-0.0727 0.69306,-0.13362 0.92154,-0.13501 z m 107.56,12.572 c 0.28594,0.0194 0.73667,0.11008 1.0025,0.20148 0.26586,0.0914 0.69583,0.31156 0.95685,0.4895 0.26034,0.17863 0.61067,0.49157 0.77753,0.69652 0.16684,0.20494 0.3981,0.56635 0.51442,0.80314 0.11631,0.2361 0.25756,0.64806 0.31363,0.91462 0.056,0.26656 0.10248,0.6432 0.10311,0.83706 6.8e-4,0.19386 -0.0603,0.59335 -0.13571,0.88692 -0.0747,0.29426 -0.23817,0.72768 -0.36349,0.96308 -0.12463,0.23611 -0.42857,0.63075 -0.67643,0.87861 -0.24717,0.24717 -0.63697,0.54766 -0.86545,0.66675 -0.22848,0.11908 -0.58643,0.27486 -0.79622,0.34548 -0.28317,0.0962 -0.56636,0.12809 -1.1078,0.12324 -0.55943,-0.005 -0.83084,-0.0422 -1.177,-0.16132 -0.24717,-0.0852 -0.61897,-0.25133 -0.82529,-0.36833 -0.20633,-0.11771 -0.55182,-0.39049 -0.76715,-0.60582 -0.21533,-0.21533 -0.48811,-0.56082 -0.60581,-0.76714 -0.11707,-0.20633 -0.28318,-0.57813 -0.36905,-0.8253 -0.1239,-0.35864 -0.15508,-0.59751 -0.15232,-1.177 0.002,-0.59544 0.0354,-0.81907 0.18072,-1.238 0.0976,-0.28111 0.28317,-0.67021 0.41333,-0.86546 0.12947,-0.19524 0.3718,-0.49019 0.53867,-0.65636 0.16616,-0.16547 0.43549,-0.39257 0.59751,-0.50473 0.1627,-0.11147 0.50057,-0.2804 0.75121,-0.37457 0.25064,-0.0942 0.61689,-0.20009 0.81421,-0.23471 0.19733,-0.0346 0.59267,-0.0471 0.87792,-0.0277 z"
       transform="matrix(4.218686,0,0,4.218686,-1442.2358,-1238.4595)"
       stroke="null" />
  </g>
</svg>
