<?xml version="1.0" encoding="UTF-8" standalone="no"?>
<svg
   xmlns:dc="http://purl.org/dc/elements/1.1/"
   xmlns:cc="http://creativecommons.org/ns#"
   xmlns:rdf="http://www.w3.org/1999/02/22-rdf-syntax-ns#"
   xmlns:svg="http://www.w3.org/2000/svg"
   xmlns="http://www.w3.org/2000/svg"
   id="svg12"
   version="1.1"
   height="768"
   width="1024">
  <metadata
     id="metadata18">
    <rdf:RDF>
      <cc:Work
         rdf:about="">
        <dc:format>image/svg+xml</dc:format>
        <dc:type
           rdf:resource="http://purl.org/dc/dcmitype/StillImage" />
      </cc:Work>
    </rdf:RDF>
  </metadata>
  <defs
     id="defs16" />
  <g
     id="g5">
    <title
       id="title2">background</title>
    <path
       id="canvas_background"
       d="M -1,-1 H 581 V 401 H -1 Z"
       style="fill:none" />
  </g>
  <g
     id="g10">
    <title
       id="title7">Layer 1</title>
    <path
       style="fill:#ffffff"
       d="m 229,320.56 v 125.78 h 76.95 V 320.56 Z m 85.87,0 v 125.78 h 60.72 V 320.56 Z m 236.85,0 v 125.78 h 70.34 V 320.56 Z m 78.59,0 v 125.78 h 79.72 V 320.56 Z m 88.46,0 V 446.34 H 795 V 320.56 Z m -279.36,2.29 c -1.64,-0.01 -3.1,-0.01 -3.25,0 -0.16,0.02 -0.76,0.06 -1.35,0.11 -0.59,0.04 -1.68,0.15 -2.41,0.24 -0.73,0.09 -1.81,0.24 -2.39,0.34 -0.58,0.1 -1.51,0.27 -2.06,0.39 -0.55,0.11 -1.44,0.32 -1.97,0.45 -0.53,0.13 -1.41,0.37 -1.94,0.52 -0.53,0.15 -1.41,0.42 -1.94,0.59 -0.53,0.17 -1.46,0.5 -2.07,0.72 -0.6,0.23 -1.58,0.62 -2.16,0.86 -0.59,0.25 -1.52,0.67 -2.09,0.93 -0.56,0.27 -1.49,0.73 -2.06,1.03 -0.57,0.3 -1.41,0.76 -1.87,1.02 -0.45,0.26 -1.2,0.7 -1.66,0.99 -0.45,0.28 -1.31,0.84 -1.9,1.24 -0.59,0.4 -1.51,1.06 -2.04,1.46 -0.54,0.4 -1.3,0.99 -1.7,1.32 -0.4,0.32 -1.07,0.89 -1.49,1.26 -0.42,0.36 -1.18,1.07 -1.7,1.56 -0.52,0.49 -1.32,1.28 -1.77,1.76 -0.45,0.47 -1.07,1.14 -1.38,1.49 -0.31,0.34 -0.88,1.01 -1.27,1.48 -0.4,0.48 -1.11,1.4 -1.6,2.05 -0.48,0.64 -1.22,1.69 -1.64,2.31 -0.42,0.63 -0.98,1.51 -1.24,1.94 -0.27,0.44 -0.77,1.3 -1.1,1.91 -0.34,0.61 -0.92,1.73 -1.29,2.49 -0.37,0.76 -0.85,1.8 -1.07,2.32 -0.21,0.51 -0.53,1.29 -0.7,1.73 -0.17,0.44 -0.51,1.39 -0.76,2.11 -0.24,0.73 -0.58,1.79 -0.75,2.37 -0.17,0.58 -0.48,1.74 -0.68,2.56 -0.21,0.83 -0.49,2.06 -0.63,2.72 -0.13,0.67 -0.32,1.68 -0.42,2.25 -0.09,0.57 -0.23,1.49 -0.31,2.05 -0.07,0.55 -0.18,1.44 -0.24,1.97 -0.06,0.53 -0.14,1.37 -0.18,1.87 -0.04,0.49 -0.1,1.54 -0.14,2.32 -0.03,0.78 -0.06,2.02 -0.06,2.77 0,0.74 0.03,2.02 0.07,2.84 0.03,0.81 0.11,2.04 0.17,2.73 0.06,0.69 0.18,1.85 0.28,2.59 0.09,0.74 0.26,1.89 0.37,2.56 0.11,0.67 0.29,1.62 0.39,2.12 0.1,0.49 0.3,1.43 0.45,2.07 0.15,0.64 0.42,1.69 0.59,2.32 0.18,0.63 0.49,1.69 0.7,2.36 0.21,0.67 0.55,1.7 0.76,2.29 0.21,0.59 0.59,1.6 0.85,2.25 0.26,0.64 0.63,1.53 0.82,1.97 0.19,0.44 0.62,1.37 0.95,2.08 0.33,0.7 0.89,1.82 1.25,2.49 0.35,0.67 0.88,1.64 1.18,2.15 0.29,0.51 0.77,1.32 1.07,1.79 0.29,0.48 0.77,1.25 1.07,1.7 0.3,0.46 0.84,1.25 1.2,1.77 0.36,0.51 0.94,1.31 1.28,1.76 0.34,0.46 0.94,1.22 1.32,1.7 0.38,0.47 1.05,1.28 1.49,1.8 0.44,0.51 1.18,1.34 1.64,1.83 0.46,0.5 1.43,1.48 2.15,2.19 0.72,0.71 1.54,1.51 1.83,1.77 0.28,0.26 0.94,0.83 1.45,1.27 0.51,0.44 1.32,1.12 1.8,1.5 0.47,0.38 1.35,1.05 1.94,1.49 0.59,0.44 1.6,1.16 2.25,1.59 0.64,0.44 1.63,1.08 2.18,1.42 0.55,0.35 1.42,0.87 1.93,1.16 0.51,0.3 1.49,0.84 2.18,1.2 0.69,0.37 1.88,0.96 2.64,1.32 0.76,0.36 1.68,0.78 2.04,0.93 0.36,0.15 1,0.42 1.42,0.59 0.42,0.17 1.13,0.45 1.59,0.62 0.46,0.17 1.47,0.53 2.25,0.8 0.78,0.26 2.11,0.67 2.94,0.91 0.84,0.24 2.17,0.6 2.95,0.79 0.78,0.19 1.93,0.46 2.56,0.59 0.63,0.14 1.66,0.34 2.3,0.46 0.63,0.12 1.75,0.3 2.49,0.42 0.74,0.11 2.01,0.28 2.83,0.37 0.82,0.1 2.06,0.22 2.77,0.28 0.7,0.06 1.87,0.14 2.59,0.18 0.72,0.04 2.58,0.07 4.12,0.07 1.54,0 3.35,-0.03 4.02,-0.07 0.66,-0.04 1.66,-0.1 2.21,-0.14 0.56,-0.05 1.72,-0.16 2.6,-0.25 0.87,-0.1 2.12,-0.25 2.77,-0.35 0.65,-0.09 1.55,-0.23 2.01,-0.31 0.45,-0.07 1.39,-0.25 2.07,-0.38 0.69,-0.13 1.79,-0.37 2.46,-0.52 0.67,-0.15 1.76,-0.42 2.42,-0.59 0.66,-0.17 1.88,-0.51 2.7,-0.75 0.82,-0.25 2.13,-0.66 2.91,-0.93 0.78,-0.26 2.01,-0.7 2.73,-0.97 0.73,-0.28 1.83,-0.71 2.46,-0.97 0.63,-0.26 1.65,-0.7 2.26,-0.98 0.6,-0.27 1.69,-0.78 2.42,-1.13 0.72,-0.35 1.97,-0.99 2.77,-1.42 0.8,-0.43 1.97,-1.09 2.61,-1.47 0.63,-0.37 1.61,-0.96 2.18,-1.31 0.56,-0.35 1.62,-1.04 2.34,-1.52 0.72,-0.49 1.75,-1.21 2.29,-1.6 0.54,-0.4 1.48,-1.1 2.08,-1.56 0.61,-0.46 1.67,-1.32 2.38,-1.91 0.7,-0.58 1.78,-1.51 2.39,-2.06 0.61,-0.55 1.8,-1.68 2.65,-2.52 0.86,-0.84 2.07,-2.09 2.71,-2.78 0.63,-0.68 1.53,-1.7 2,-2.24 0.47,-0.55 1.22,-1.46 1.67,-2.01 0.44,-0.55 1.1,-1.4 1.47,-1.87 0.36,-0.48 0.97,-1.3 1.35,-1.84 0.38,-0.53 1.03,-1.48 1.45,-2.11 0.42,-0.63 1.08,-1.64 1.46,-2.25 0.38,-0.61 0.93,-1.51 1.21,-2.01 0.29,-0.49 0.78,-1.37 1.1,-1.94 0.31,-0.57 0.99,-1.89 1.51,-2.94 0.52,-1.05 1.22,-2.51 1.54,-3.25 0.33,-0.75 0.85,-1.98 1.15,-2.74 0.31,-0.77 0.78,-2 1.04,-2.74 0.27,-0.74 0.68,-1.95 0.92,-2.69 0.23,-0.75 0.46,-1.47 0.51,-1.62 l 0.08,-0.27 0.66,-0.23 c 0.36,-0.13 0.97,-0.39 1.36,-0.58 0.38,-0.19 0.95,-0.5 1.24,-0.7 0.3,-0.2 0.78,-0.56 1.07,-0.8 0.29,-0.24 0.73,-0.65 0.99,-0.92 0.25,-0.28 0.63,-0.72 0.83,-1 0.2,-0.27 0.46,-0.65 0.58,-0.84 0.12,-0.19 0.37,-0.68 0.56,-1.07 0.19,-0.41 0.43,-0.98 0.53,-1.28 0.1,-0.3 0.24,-0.81 0.32,-1.14 0.07,-0.33 0.16,-1.01 0.21,-1.51 0.07,-0.73 0.07,-1.12 0,-1.84 -0.05,-0.5 -0.14,-1.18 -0.21,-1.51 -0.08,-0.33 -0.22,-0.84 -0.32,-1.14 -0.1,-0.3 -0.39,-0.99 -0.66,-1.52 -0.31,-0.63 -0.67,-1.22 -1.03,-1.7 -0.3,-0.4 -0.83,-0.99 -1.16,-1.32 -0.34,-0.33 -0.9,-0.82 -1.26,-1.09 -0.36,-0.27 -1.01,-0.67 -1.46,-0.9 -0.44,-0.22 -1.02,-0.49 -1.29,-0.59 -0.26,-0.09 -0.71,-0.24 -1,-0.32 -0.29,-0.08 -0.8,-0.19 -1.14,-0.24 -0.34,-0.06 -0.94,-0.12 -1.32,-0.15 -0.39,-0.02 -1.04,-0.01 -1.49,0.04 -0.43,0.04 -1.08,0.14 -1.44,0.22 -0.36,0.08 -0.97,0.25 -1.35,0.38 -0.38,0.14 -0.96,0.38 -1.29,0.55 -0.33,0.16 -0.94,0.52 -1.36,0.8 -0.53,0.35 -1.01,0.76 -1.62,1.37 -0.61,0.61 -1.02,1.1 -1.37,1.63 -0.28,0.41 -0.64,1.02 -0.81,1.35 -0.17,0.34 -0.41,0.92 -0.54,1.3 -0.14,0.38 -0.31,0.99 -0.39,1.36 -0.08,0.37 -0.18,1.06 -0.22,1.53 -0.06,0.64 -0.06,1.1 0,1.73 0.04,0.48 0.14,1.17 0.22,1.54 0.08,0.37 0.25,0.98 0.39,1.36 0.13,0.38 0.37,0.96 0.54,1.29 0.17,0.33 0.53,0.94 0.81,1.36 0.34,0.51 0.76,1.01 1.3,1.55 0.44,0.44 1,0.95 1.24,1.13 0.24,0.18 0.49,0.36 0.55,0.39 0.1,0.06 0.08,0.19 -0.25,1.19 -0.21,0.63 -0.62,1.79 -0.92,2.59 -0.29,0.8 -0.74,1.93 -0.99,2.52 -0.24,0.59 -0.64,1.51 -0.88,2.05 -0.24,0.53 -0.86,1.81 -1.38,2.84 -0.52,1.02 -1.3,2.49 -1.74,3.25 -0.44,0.76 -1.07,1.82 -1.41,2.35 -0.33,0.54 -0.99,1.55 -1.47,2.25 -0.48,0.71 -1.27,1.83 -1.77,2.5 -0.5,0.66 -1.27,1.67 -1.72,2.23 -0.45,0.55 -1.15,1.4 -1.55,1.86 -0.41,0.47 -1.2,1.36 -1.76,1.97 -0.57,0.6 -1.66,1.73 -2.43,2.49 -0.78,0.76 -1.87,1.79 -2.42,2.28 -0.55,0.49 -1.36,1.19 -1.8,1.56 -0.44,0.36 -1.09,0.9 -1.45,1.18 -0.36,0.29 -1.1,0.85 -1.63,1.26 -0.53,0.4 -1.44,1.05 -2.01,1.45 -0.57,0.4 -1.45,1 -1.96,1.33 -0.51,0.33 -1.43,0.91 -2.04,1.28 -0.62,0.37 -1.66,0.98 -2.32,1.35 -0.66,0.37 -1.94,1.04 -2.84,1.49 -0.9,0.45 -1.98,0.98 -2.4,1.17 -0.42,0.19 -1.22,0.54 -1.77,0.78 -0.55,0.23 -1.44,0.6 -1.97,0.81 -0.53,0.21 -1.52,0.57 -2.18,0.81 -0.67,0.24 -1.77,0.62 -2.45,0.83 -0.68,0.21 -1.73,0.53 -2.34,0.7 -0.61,0.17 -1.8,0.48 -2.64,0.69 -0.85,0.2 -2.17,0.5 -2.95,0.65 -0.78,0.15 -1.91,0.36 -2.5,0.45 -0.59,0.1 -1.65,0.25 -2.35,0.35 -0.71,0.09 -2,0.23 -2.88,0.31 -0.87,0.08 -2.18,0.17 -2.9,0.21 -0.73,0.04 -2.36,0.07 -3.64,0.07 -1.27,0 -2.91,-0.03 -3.63,-0.07 -0.73,-0.04 -1.88,-0.12 -2.57,-0.17 -0.68,-0.06 -1.88,-0.19 -2.66,-0.28 -0.78,-0.1 -2.07,-0.28 -2.87,-0.41 -0.8,-0.13 -2.01,-0.35 -2.69,-0.49 -0.68,-0.13 -1.76,-0.37 -2.4,-0.52 -0.64,-0.15 -1.47,-0.35 -1.85,-0.45 -0.37,-0.1 -1.12,-0.31 -1.65,-0.46 -0.53,-0.15 -1.48,-0.45 -2.11,-0.66 -0.63,-0.21 -1.64,-0.57 -2.25,-0.8 -0.61,-0.23 -1.62,-0.63 -2.25,-0.9 -0.63,-0.26 -1.81,-0.8 -2.62,-1.2 -0.81,-0.39 -1.86,-0.93 -2.32,-1.18 -0.46,-0.26 -1.38,-0.79 -2.03,-1.18 -0.66,-0.39 -1.67,-1.03 -2.25,-1.42 -0.59,-0.38 -1.58,-1.08 -2.21,-1.54 -0.62,-0.46 -1.49,-1.13 -1.93,-1.49 -0.44,-0.35 -1.22,-1.01 -1.73,-1.45 -0.51,-0.44 -1.56,-1.41 -2.31,-2.15 -0.76,-0.75 -1.79,-1.81 -2.29,-2.36 -0.5,-0.55 -1.22,-1.38 -1.6,-1.83 -0.39,-0.46 -1.01,-1.24 -1.39,-1.73 -0.38,-0.5 -0.93,-1.23 -1.22,-1.63 -0.29,-0.4 -0.88,-1.27 -1.32,-1.94 -0.44,-0.67 -1.11,-1.74 -1.49,-2.39 -0.38,-0.65 -0.88,-1.52 -1.11,-1.94 -0.23,-0.42 -0.68,-1.29 -1,-1.93 -0.33,-0.65 -0.82,-1.71 -1.11,-2.36 -0.29,-0.65 -0.65,-1.49 -0.8,-1.87 -0.15,-0.38 -0.48,-1.26 -0.73,-1.96 -0.25,-0.69 -0.66,-1.92 -0.9,-2.73 -0.25,-0.81 -0.59,-2.05 -0.76,-2.75 -0.18,-0.71 -0.44,-1.91 -0.59,-2.67 -0.15,-0.76 -0.36,-1.93 -0.45,-2.59 -0.1,-0.67 -0.23,-1.62 -0.28,-2.12 -0.06,-0.49 -0.14,-1.38 -0.19,-1.97 -0.06,-0.69 -0.09,-2.23 -0.09,-4.36 0,-2.59 0.02,-3.58 0.12,-4.64 0.07,-0.74 0.19,-1.84 0.26,-2.45 0.08,-0.61 0.23,-1.66 0.34,-2.33 0.11,-0.66 0.3,-1.67 0.42,-2.25 0.12,-0.57 0.37,-1.64 0.55,-2.38 0.19,-0.75 0.5,-1.88 0.7,-2.53 0.19,-0.65 0.55,-1.71 0.79,-2.36 0.24,-0.64 0.61,-1.58 0.82,-2.07 0.21,-0.5 0.56,-1.29 0.79,-1.77 0.23,-0.48 0.65,-1.32 0.95,-1.87 0.3,-0.55 0.77,-1.39 1.06,-1.87 0.29,-0.47 0.82,-1.32 1.2,-1.88 0.37,-0.56 0.99,-1.43 1.37,-1.94 0.38,-0.51 0.97,-1.26 1.32,-1.68 0.35,-0.42 0.95,-1.11 1.32,-1.53 0.38,-0.42 1.21,-1.28 1.85,-1.9 0.64,-0.63 1.62,-1.53 2.17,-2.01 0.55,-0.47 1.4,-1.16 1.87,-1.52 0.47,-0.36 1.26,-0.94 1.76,-1.29 0.49,-0.35 1.32,-0.89 1.84,-1.22 0.51,-0.32 1.32,-0.8 1.79,-1.07 0.48,-0.27 1.4,-0.75 2.05,-1.08 0.64,-0.32 1.55,-0.75 2.01,-0.95 0.45,-0.2 1.33,-0.55 1.93,-0.79 0.61,-0.24 1.55,-0.58 2.08,-0.75 0.53,-0.18 1.24,-0.4 1.56,-0.49 0.32,-0.1 1.09,-0.3 1.69,-0.45 0.61,-0.16 1.58,-0.37 2.16,-0.49 0.57,-0.12 1.59,-0.29 2.25,-0.38 0.66,-0.1 1.72,-0.23 2.34,-0.3 0.9,-0.09 1.8,-0.12 4.13,-0.12 2.37,0 3.22,0.02 4.18,0.12 0.67,0.07 1.74,0.2 2.39,0.3 0.65,0.1 1.73,0.28 2.39,0.42 0.67,0.13 1.69,0.36 2.28,0.52 0.6,0.15 1.61,0.45 2.26,0.66 0.64,0.21 1.63,0.56 2.18,0.78 0.55,0.22 1.41,0.59 1.91,0.82 0.5,0.23 1.32,0.64 1.83,0.92 0.51,0.27 1.24,0.68 1.62,0.91 0.38,0.23 1.06,0.66 1.5,0.96 0.44,0.3 1.16,0.82 1.6,1.15 0.44,0.34 1.17,0.92 1.62,1.31 0.45,0.39 1.4,1.29 2.1,2.01 0.71,0.72 1.66,1.77 2.12,2.34 0.45,0.57 1.08,1.4 1.39,1.84 0.31,0.44 0.79,1.17 1.08,1.62 0.28,0.46 0.79,1.33 1.12,1.94 0.33,0.6 0.8,1.52 1.04,2.04 0.24,0.52 0.59,1.34 0.79,1.83 0.2,0.48 0.53,1.39 0.73,2 0.21,0.62 0.52,1.69 0.69,2.39 0.17,0.69 0.4,1.69 0.49,2.21 0.1,0.53 0.24,1.44 0.31,2.03 0.08,0.59 0.17,1.62 0.22,2.29 0.05,0.74 0.06,1.86 0.04,2.9 -0.02,0.94 -0.09,2.13 -0.15,2.67 -0.05,0.53 -0.13,1.2 -0.17,1.49 -0.04,0.28 -0.15,0.95 -0.25,1.49 -0.1,0.53 -0.3,1.45 -0.44,2.04 -0.15,0.59 -0.37,1.38 -0.49,1.76 -0.12,0.38 -0.4,1.13 -0.6,1.66 -0.21,0.54 -0.62,1.44 -0.9,2.01 -0.28,0.57 -0.76,1.46 -1.06,1.97 -0.31,0.51 -0.85,1.34 -1.21,1.84 -0.36,0.49 -0.91,1.21 -1.22,1.59 -0.32,0.38 -1.09,1.21 -1.72,1.84 -0.63,0.63 -1.57,1.48 -2.08,1.89 -0.52,0.41 -1.34,1.02 -1.84,1.36 -0.49,0.33 -1.19,0.78 -1.56,0.99 -0.36,0.21 -1.12,0.62 -1.69,0.9 -0.57,0.29 -1.48,0.69 -2.01,0.9 -0.53,0.21 -1.38,0.51 -1.87,0.66 -0.5,0.16 -1.21,0.36 -1.59,0.46 -0.38,0.09 -1.1,0.25 -1.59,0.34 -0.5,0.1 -1.33,0.23 -1.84,0.29 -0.51,0.06 -1.62,0.13 -2.46,0.15 -0.92,0.02 -1.95,0.01 -2.59,-0.04 -0.59,-0.05 -1.42,-0.13 -1.84,-0.19 -0.42,-0.06 -1.15,-0.18 -1.63,-0.28 -0.47,-0.1 -1.2,-0.26 -1.62,-0.37 -0.42,-0.11 -1.13,-0.33 -1.57,-0.48 -0.45,-0.15 -1.18,-0.44 -1.63,-0.63 -0.45,-0.19 -1.16,-0.54 -1.58,-0.77 -0.42,-0.23 -1.15,-0.68 -1.63,-1 -0.48,-0.31 -1.25,-0.9 -1.73,-1.29 -0.47,-0.4 -1.21,-1.08 -1.63,-1.52 -0.41,-0.43 -0.99,-1.08 -1.28,-1.44 -0.29,-0.36 -0.73,-0.95 -0.98,-1.32 -0.25,-0.36 -0.63,-0.96 -0.85,-1.34 -0.22,-0.37 -0.59,-1.09 -0.83,-1.59 -0.24,-0.5 -0.56,-1.25 -0.71,-1.67 -0.16,-0.42 -0.38,-1.11 -0.49,-1.52 -0.12,-0.42 -0.28,-1.08 -0.36,-1.46 -0.07,-0.38 -0.18,-1.06 -0.24,-1.52 -0.05,-0.46 -0.11,-1.09 -0.13,-1.4 l -0.03,-0.56 0.7,-0.23 c 0.38,-0.12 1.09,-0.42 1.56,-0.66 0.48,-0.24 1.14,-0.63 1.48,-0.87 0.33,-0.24 0.8,-0.62 1.06,-0.84 0.25,-0.23 0.68,-0.67 0.96,-0.98 0.28,-0.32 0.68,-0.85 0.9,-1.18 0.22,-0.33 0.57,-0.95 0.77,-1.37 0.21,-0.43 0.47,-1.06 0.58,-1.41 0.12,-0.36 0.28,-0.99 0.37,-1.42 0.12,-0.65 0.15,-1.01 0.15,-2.06 0,-0.91 -0.04,-1.47 -0.12,-1.92 -0.07,-0.36 -0.2,-0.92 -0.3,-1.25 -0.09,-0.33 -0.31,-0.92 -0.47,-1.31 -0.16,-0.38 -0.46,-0.98 -0.66,-1.31 -0.21,-0.34 -0.56,-0.86 -0.79,-1.16 -0.22,-0.31 -0.7,-0.83 -1.05,-1.18 -0.35,-0.35 -0.89,-0.81 -1.19,-1.03 -0.31,-0.23 -0.82,-0.56 -1.13,-0.74 -0.31,-0.19 -0.87,-0.47 -1.24,-0.62 -0.37,-0.15 -0.93,-0.35 -1.26,-0.45 -0.32,-0.09 -0.87,-0.22 -1.23,-0.28 -0.36,-0.06 -1,-0.13 -1.42,-0.15 -0.43,-0.03 -1.12,-0.01 -1.56,0.04 -0.44,0.04 -1.08,0.14 -1.42,0.22 -0.34,0.07 -0.86,0.21 -1.14,0.31 -0.29,0.09 -0.96,0.38 -1.49,0.65 -0.58,0.28 -1.24,0.68 -1.63,0.97 -0.36,0.27 -0.92,0.75 -1.23,1.06 -0.32,0.31 -0.78,0.81 -1.02,1.12 -0.24,0.3 -0.56,0.76 -0.72,1.02 -0.15,0.26 -0.41,0.71 -0.56,1.01 -0.15,0.3 -0.38,0.85 -0.51,1.24 -0.13,0.38 -0.3,0.98 -0.38,1.34 -0.08,0.36 -0.18,1.06 -0.22,1.56 -0.06,0.67 -0.06,1.14 0,1.77 0.04,0.47 0.14,1.13 0.21,1.47 0.08,0.35 0.22,0.88 0.32,1.18 0.1,0.31 0.33,0.88 0.51,1.26 0.18,0.39 0.51,0.98 0.73,1.32 0.22,0.33 0.58,0.83 0.8,1.09 0.21,0.27 0.67,0.75 1,1.07 0.33,0.31 0.79,0.7 1.01,0.86 l 0.42,0.29 -0.05,0.83 c -0.03,0.46 -0.01,1.42 0.03,2.15 0.04,0.72 0.11,1.59 0.15,1.93 0.04,0.35 0.14,1.02 0.21,1.49 0.08,0.48 0.23,1.27 0.35,1.77 0.11,0.49 0.33,1.33 0.48,1.87 0.16,0.53 0.39,1.25 0.52,1.59 0.12,0.34 0.35,0.95 0.51,1.35 0.16,0.4 0.53,1.22 0.83,1.83 0.29,0.61 0.73,1.45 0.97,1.87 0.23,0.42 0.75,1.25 1.15,1.84 0.39,0.59 1.05,1.49 1.46,2.01 0.41,0.51 1.23,1.43 1.82,2.03 0.59,0.61 1.4,1.38 1.8,1.73 0.4,0.35 1.18,0.97 1.74,1.39 0.56,0.42 1.47,1.05 2.01,1.39 0.55,0.34 1.53,0.89 2.17,1.22 0.65,0.33 1.68,0.81 2.28,1.06 0.6,0.25 1.57,0.61 2.14,0.8 0.57,0.19 1.52,0.47 2.12,0.62 0.59,0.15 1.48,0.35 1.98,0.45 0.49,0.1 1.23,0.22 1.63,0.28 0.4,0.06 1.15,0.16 1.66,0.22 0.51,0.05 1.88,0.12 3.04,0.14 1.32,0.02 2.52,0.01 3.19,-0.04 0.59,-0.04 1.57,-0.14 2.18,-0.22 0.61,-0.08 1.72,-0.26 2.46,-0.41 0.74,-0.15 1.82,-0.4 2.39,-0.56 0.57,-0.15 1.49,-0.43 2.05,-0.62 0.55,-0.19 1.4,-0.49 1.87,-0.68 0.47,-0.19 1.17,-0.49 1.56,-0.66 0.4,-0.18 1,-0.46 1.35,-0.64 0.36,-0.18 1.11,-0.58 1.67,-0.9 0.56,-0.32 1.43,-0.85 1.94,-1.18 0.5,-0.32 1.38,-0.94 1.95,-1.37 0.57,-0.43 1.4,-1.09 1.84,-1.46 0.43,-0.37 1.38,-1.27 2.11,-2 0.72,-0.73 1.61,-1.68 1.98,-2.12 0.36,-0.43 0.92,-1.14 1.24,-1.56 0.31,-0.41 0.89,-1.24 1.28,-1.83 0.39,-0.59 0.95,-1.49 1.24,-2 0.29,-0.51 0.71,-1.28 0.93,-1.73 0.22,-0.44 0.56,-1.17 0.76,-1.61 0.19,-0.44 0.49,-1.16 0.66,-1.59 0.17,-0.43 0.46,-1.29 0.66,-1.9 0.2,-0.61 0.5,-1.65 0.67,-2.31 0.16,-0.66 0.41,-1.75 0.54,-2.42 0.14,-0.67 0.31,-1.66 0.38,-2.19 0.08,-0.53 0.19,-1.42 0.25,-1.97 0.06,-0.56 0.14,-1.79 0.19,-2.76 0.06,-1.35 0.06,-2.15 0,-3.56 -0.05,-1 -0.13,-2.27 -0.19,-2.82 -0.06,-0.56 -0.19,-1.52 -0.28,-2.15 -0.1,-0.63 -0.27,-1.6 -0.39,-2.17 -0.11,-0.56 -0.32,-1.5 -0.47,-2.08 -0.15,-0.57 -0.43,-1.56 -0.62,-2.19 -0.19,-0.63 -0.53,-1.64 -0.76,-2.25 -0.22,-0.61 -0.57,-1.5 -0.77,-1.97 -0.19,-0.48 -0.61,-1.38 -0.91,-2.01 -0.3,-0.63 -0.84,-1.67 -1.18,-2.32 -0.35,-0.65 -0.87,-1.57 -1.15,-2.04 -0.28,-0.48 -0.81,-1.3 -1.16,-1.84 -0.36,-0.53 -0.97,-1.39 -1.36,-1.91 -0.39,-0.52 -1.12,-1.42 -1.62,-2.01 -0.5,-0.58 -1.38,-1.53 -1.94,-2.11 -0.57,-0.57 -1.36,-1.34 -1.77,-1.7 -0.41,-0.37 -1.07,-0.93 -1.48,-1.26 -0.4,-0.33 -1.11,-0.88 -1.57,-1.23 -0.47,-0.35 -1.33,-0.95 -1.92,-1.34 -0.59,-0.39 -1.51,-0.97 -2.04,-1.28 -0.54,-0.31 -1.75,-0.95 -2.7,-1.42 -0.96,-0.47 -2.28,-1.07 -2.95,-1.34 -0.66,-0.26 -1.67,-0.64 -2.24,-0.83 -0.57,-0.2 -1.45,-0.48 -1.97,-0.63 -0.52,-0.15 -1.44,-0.4 -2.05,-0.55 -0.61,-0.15 -1.56,-0.37 -2.12,-0.48 -0.55,-0.12 -1.55,-0.31 -2.21,-0.42 -0.67,-0.12 -1.7,-0.27 -2.29,-0.35 -0.59,-0.08 -1.58,-0.19 -2.21,-0.25 -0.82,-0.08 -1.97,-0.12 -4.12,-0.13 z m -200.79,15.39 h 57.11 v 20.2 l -31.26,49.06 h 31.26 v 20.2 h -57.11 v -20.2 l 32.34,-49.06 h -32.34 z m 85.15,0 h 20.2 v 69.26 h 23.93 v 20.2 h -44.13 z m 235.64,0 h 54.83 v 20.2 h -34.62 v 14.43 h 25.49 v 20.2 h -25.49 v 14.43 h 34.62 v 20.2 h -54.83 z m 78,0 h 20.56 l 23.93,43.89 v -43.89 h 21.4 v 89.46 h -20.44 l -24.05,-44.01 v 44.01 h -21.4 z m 89.06,0 h 20.2 v 20.8 l 14.54,-20.8 h 25.02 l -33.31,44.85 33.19,44.61 H 761.1 l -14.43,-19.36 v 19.36 h -20.2 z m -302.64,22.72 c 0.23,0 0.63,0.05 0.88,0.1 0.26,0.06 0.7,0.22 0.98,0.36 0.31,0.16 0.67,0.44 0.95,0.71 0.35,0.34 0.53,0.6 0.74,1.05 0.16,0.32 0.32,0.77 0.36,1 0.04,0.22 0.07,0.57 0.07,0.76 0,0.2 -0.06,0.6 -0.13,0.89 -0.08,0.3 -0.24,0.73 -0.37,0.96 -0.12,0.23 -0.41,0.61 -0.64,0.85 -0.23,0.23 -0.59,0.52 -0.8,0.64 -0.21,0.12 -0.58,0.29 -0.83,0.37 -0.34,0.12 -0.61,0.16 -1.1,0.16 -0.43,0 -0.81,-0.05 -1.07,-0.12 -0.23,-0.07 -0.6,-0.22 -0.83,-0.34 -0.26,-0.12 -0.62,-0.4 -0.92,-0.7 -0.27,-0.27 -0.57,-0.66 -0.68,-0.87 -0.1,-0.21 -0.23,-0.5 -0.29,-0.66 -0.05,-0.15 -0.13,-0.49 -0.16,-0.74 -0.05,-0.31 -0.04,-0.64 0,-0.96 0.04,-0.27 0.13,-0.67 0.21,-0.88 0.07,-0.22 0.28,-0.61 0.46,-0.88 0.18,-0.26 0.5,-0.61 0.71,-0.77 0.2,-0.16 0.52,-0.38 0.7,-0.48 0.19,-0.09 0.56,-0.24 0.84,-0.31 0.28,-0.07 0.69,-0.13 0.92,-0.14 z m 107.56,12.58 c 0.29,0.02 0.74,0.11 1,0.2 0.27,0.09 0.7,0.31 0.96,0.49 0.26,0.18 0.61,0.49 0.78,0.7 0.17,0.2 0.4,0.56 0.51,0.8 0.12,0.23 0.26,0.65 0.32,0.91 0.05,0.27 0.1,0.65 0.1,0.84 0,0.19 -0.06,0.59 -0.14,0.89 -0.07,0.29 -0.23,0.72 -0.36,0.96 -0.12,0.24 -0.43,0.63 -0.68,0.88 -0.24,0.25 -0.63,0.55 -0.86,0.67 -0.23,0.11 -0.59,0.27 -0.8,0.34 -0.28,0.1 -0.57,0.13 -1.11,0.12 -0.56,0 -0.83,-0.04 -1.17,-0.16 -0.25,-0.08 -0.62,-0.25 -0.83,-0.37 -0.21,-0.11 -0.55,-0.39 -0.77,-0.6 -0.21,-0.22 -0.48,-0.56 -0.6,-0.77 -0.12,-0.2 -0.28,-0.58 -0.37,-0.82 -0.12,-0.36 -0.16,-0.6 -0.15,-1.18 0,-0.6 0.03,-0.82 0.18,-1.24 0.1,-0.28 0.28,-0.67 0.41,-0.86 0.13,-0.2 0.37,-0.49 0.54,-0.66 0.17,-0.17 0.44,-0.39 0.6,-0.51 0.16,-0.11 0.5,-0.28 0.75,-0.37 0.25,-0.1 0.62,-0.2 0.81,-0.24 0.2,-0.03 0.6,-0.04 0.88,-0.02 z"
       id="svg_1" />
  </g>
</svg>
