<?xml version="1.0" standalone="no"?>
<!DOCTYPE svg PUBLIC "-//W3C//DTD SVG 20010904//EN"
 "http://www.w3.org/TR/2001/REC-SVG-20010904/DTD/svg10.dtd">
<svg version="1.0" xmlns="http://www.w3.org/2000/svg"
 width="64.000000pt" height="64.000000pt" viewBox="0 0 64.000000 64.000000"
 preserveAspectRatio="xMidYMid meet">

<g transform="translate(0.000000,64.000000) scale(0.100000,-0.100000)"
fill="#000000" stroke="none">
<path d="M1 583 c1 -51 2 -54 10 -27 12 42 42 66 92 75 36 6 32 7 -30 8 l-73
1 1 -57z"/>
<path d="M537 631 c50 -9 80 -33 92 -75 8 -27 9 -24 10 27 l1 57 -72 -1 c-63
-1 -67 -2 -31 -8z"/>
<path d="M82 590 c-36 -15 -44 -54 -40 -208 4 -182 -1 -176 164 -186 64 -4
170 -4 235 -1 160 10 154 2 154 206 0 139 -2 161 -18 176 -16 16 -42 18 -245
20 -125 1 -237 -2 -250 -7z m343 -185 c0 -22 -148 -110 -171 -101 -19 7 -20
192 -1 199 6 3 48 -14 92 -37 58 -30 80 -47 80 -61z"/>
<path d="M280 405 l0 -55 51 26 c28 14 49 26 47 28 -1 1 -24 15 -50 30 l-48
27 0 -56z"/>
<path d="M0 138 l0 -138 320 0 320 0 0 138 c-1 131 -1 135 -15 97 -8 -22 -15
-41 -15 -43 0 -2 -16 -10 -35 -18 -50 -20 -460 -20 -510 0 -19 8 -35 16 -35
18 0 2 -7 21 -15 43 -14 38 -14 34 -15 -97z"/>
</g>
</svg>
